<svg width="20" height="20" viewBox="0 0 20 20" fill="none" xmlns="http://www.w3.org/2000/svg">
<path d="M9.998 0C15.515 0 19.995 4.48 19.995 9.997C19.995 15.515 15.515 19.995 9.998 19.995C4.48 19.995 0 15.515 0 9.997C0 4.48 4.48 0 9.998 0ZM4.949 10.386L8.8 13.816C8.942 13.944 9.121 14.006 9.299 14.006C9.501 14.006 9.704 13.925 9.851 13.764L15.804 7.255C15.935 7.112 16 6.932 16 6.753C16 6.343 15.669 6.006 15.252 6.006C15.048 6.006 14.847 6.088 14.698 6.249L9.245 12.211L5.947 9.273C5.803 9.146 5.626 9.083 5.448 9.083C5.033 9.083 4.7 9.418 4.7 9.829C4.7 10.034 4.784 10.238 4.949 10.386Z" fill="#EEEEEE"/>
</svg>
