<svg width="24" height="22" viewBox="0 0 24 22" fill="none" xmlns="http://www.w3.org/2000/svg">
<path fill-rule="evenodd" clip-rule="evenodd" d="M5.662 22L0.293 16.635C0.098 16.44 0 16.185 0 15.928C0 15.672 0.098 15.416 0.293 15.221L15.222 0.293C15.417 0.099 15.673 0 15.929 0C16.184 0 16.441 0.099 16.636 0.293L23.707 7.366C23.903 7.561 24 7.817 24 8.074C24 8.33 23.903 8.585 23.707 8.781L12.491 20H18.005V22H5.662ZM9.319 20L3.833 14.514L2.414 15.928L6.49 20H9.319ZM9.775 8.571L5.247 13.099L10.905 18.758L15.432 14.228L9.775 8.571Z" fill="black"/>
</svg>
