<svg width="22" height="22" viewBox="0 0 22 22" fill="none" xmlns="http://www.w3.org/2000/svg">
<path d="M2.503 5.726C4.268 2.89 7.414 1 10.998 1C16.516 1 20.995 5.48 20.995 10.997C20.995 16.516 16.516 20.996 10.998 20.996C5.753 20.996 1.445 16.948 1.032 11.808C1.008 11.506 1.221 10.997 1.781 10.997C2.172 10.997 2.496 11.297 2.528 11.687C2.879 16.056 6.54 19.496 10.998 19.496C15.688 19.496 19.495 15.688 19.495 10.997C19.495 6.308 15.688 2.5 10.998 2.5C7.961 2.5 5.294 4.097 3.792 6.495L5.783 6.5C6.197 6.5 6.533 6.836 6.533 7.25C6.533 7.664 6.197 8 5.783 8H1.75C1.336 8 1 7.664 1 7.25V3.201C1 2.787 1.336 2.451 1.75 2.451C2.164 2.451 2.5 2.786 2.5 3.201L2.503 5.726Z" fill="black" stroke="black" stroke-width="0.3"/>
</svg>
