<svg width="18" height="18" viewBox="0 0 18 18" fill="none" xmlns="http://www.w3.org/2000/svg">
<path d="M16 17.25C16 16.848 15.644 16.5 15.25 16.5C12.689 16.5 3.311 16.5 0.75 16.5C0.356 16.5 0 16.848 0 17.25C0 17.652 0.356 18 0.75 18H15.25C15.644 18 16 17.652 16 17.25ZM8.597 13.852L17.721 4.727C17.892 4.556 18 4.304 18 4.043C18 3.814 17.917 3.577 17.72 3.381L14.605 0.277C14.42 0.0919999 14.176 0 13.933 0C13.69 0 13.447 0.0919999 13.261 0.277L4.118 9.38C3.549 11.143 2.563 14.203 2.492 14.461C2.472 14.536 2.463 14.611 2.463 14.685C2.463 15.146 2.812 15.533 3.228 15.533C3.739 15.533 4.219 15.344 8.597 13.852ZM5.327 10.51L7.464 12.647L4.296 13.693L5.327 10.51ZM6.282 9.344L13.933 1.728L16.268 4.055L8.631 11.693L6.282 9.344Z" fill="black"/>
</svg>
