<svg width="20" height="16" viewBox="0 0 20 16" fill="none" xmlns="http://www.w3.org/2000/svg">
<path d="M15.5 7C17.984 7 20 9.016 20 11.5C20 13.984 17.984 16 15.5 16C13.017 16 11 13.984 11 11.5C11 9.016 13.017 7 15.5 7ZM9.521 12C9.564 12.522 9.674 13.025 9.842 13.5H0.75C0.336 13.5 0 13.164 0 12.75C0 12.336 0.336 12 0.75 12H9.521ZM16.207 11.5C16.207 11.5 16.849 10.858 17.268 10.439C17.456 10.252 17.456 9.92 17.268 9.732C17.08 9.545 16.748 9.545 16.561 9.732C16.142 10.151 15.5 10.793 15.5 10.793C15.5 10.793 14.859 10.151 14.44 9.732C14.252 9.545 13.92 9.545 13.733 9.732C13.545 9.92 13.545 10.252 13.733 10.439C14.151 10.858 14.793 11.5 14.793 11.5C14.793 11.5 14.151 12.142 13.733 12.561C13.545 12.748 13.545 13.08 13.733 13.268C13.92 13.455 14.252 13.455 14.44 13.268C14.859 12.849 15.5 12.207 15.5 12.207C15.5 12.207 16.142 12.849 16.561 13.268C16.748 13.455 17.08 13.455 17.268 13.268C17.456 13.08 17.456 12.748 17.268 12.561C16.849 12.142 16.207 11.5 16.207 11.5ZM10.628 8C10.299 8.456 10.033 8.96 9.842 9.5H0.75C0.336 9.5 0 9.164 0 8.75C0 8.336 0.336 8 0.75 8H10.628ZM18 4.75C18 4.336 17.664 4 17.25 4H0.75C0.336 4 0 4.336 0 4.75C0 5.164 0.336 5.5 0.75 5.5H17.25C17.664 5.5 18 5.164 18 4.75ZM18 0.75C18 0.336 17.664 0 17.25 0H0.75C0.336 0 0 0.336 0 0.75C0 1.164 0.336 1.5 0.75 1.5H17.25C17.664 1.5 18 1.164 18 0.75Z" fill="black"/>
</svg>
