<svg width="20" height="16" viewBox="0 0 20 16" fill="none" xmlns="http://www.w3.org/2000/svg">
<path d="M9 14.745C9 14.331 9.336 13.995 9.75 13.995H19.25C19.664 13.995 20 14.331 20 14.745C20 15.159 19.664 15.495 19.25 15.495H9.75C9.336 15.495 9 15.159 9 14.745ZM0 7.745C0 7.331 0.336 6.995 0.75 6.995H19.25C19.664 6.995 20 7.331 20 7.745C20 8.159 19.664 8.495 19.25 8.495H0.75C0.336 8.495 0 8.159 0 7.745ZM4 0.744995C4 0.330995 4.336 -0.00500488 4.75 -0.00500488H19.25C19.664 -0.00500488 20 0.330995 20 0.744995C20 1.159 19.664 1.495 19.25 1.495H4.75C4.336 1.495 4 1.159 4 0.744995Z" fill="black"/>
</svg>
